<?xml version="1.0" encoding="UTF-8" standalone="no"?>
<!DOCTYPE svg PUBLIC "-//W3C//DTD SVG 1.1//EN" "http://www.w3.org/Graphics/SVG/1.1/DTD/svg11.dtd">
<svg xmlns="http://www.w3.org/2000/svg" version="1.1" viewBox="0.00 0.00 1024.00 1024.00">
<g stroke-width="2.00" fill="none" stroke-linecap="butt">
<path stroke="#1f2227" vector-effect="non-scaling-stroke" d="
  M 1.35 0.00
  Q 0.91 2.07 0.93 4.25
  Q 1.39 55.79 1.04 95.78
  Q 0.95 105.93 1.38 122.28
  Q 1.58 130.00 1.18 145.56
  Q 1.05 150.68 1.11 152.90
  Q 1.23 157.22 0.92 160.27
  Q 0.46 164.79 0.70 171.27
  Q 1.53 192.82 1.13 210.26
  Q 1.11 211.12 1.14 215.76
  C 1.18 223.36 0.08 231.63 0.30 236.25
  Q 1.17 255.11 0.96 273.72
  Q 0.93 276.17 1.26 278.07
  Q 1.60 280.00 2.22 282.36
  Q 2.48 283.35 3.33 282.77
  Q 3.74 282.48 3.99 281.42
  Q 5.30 275.89 5.73 272.31
  Q 7.43 258.14 8.37 238.87
  C 9.19 222.08 9.83 205.73 9.90 188.46
  Q 9.99 166.98 10.26 147.68
  Q 10.40 138.01 13.82 98.48
  Q 15.04 84.33 14.74 57.98
  C 14.58 44.15 15.11 29.59 15.19 19.07
  Q 15.19 17.89 14.67 15.96
  Q 14.53 15.47 14.05 15.28
  Q 12.94 14.86 12.79 13.13
  Q 12.17 5.61 12.26 0.00"
/>
<path stroke="#1f2227" vector-effect="non-scaling-stroke" d="
  M 3.16 1024.00
  L 2.30 1000.79"
/>
<path stroke="#1c2024" vector-effect="non-scaling-stroke" d="
  M 2.30 1000.79
  L 2.37 963.08
  Q 2.40 942.86 2.10 918.72
  Q 2.04 913.76 2.22 866.78"
/>
<path stroke="#1f2227" vector-effect="non-scaling-stroke" d="
  M 2.22 866.78
  L 2.29 853.95"
/>
<path stroke="#1c2024" vector-effect="non-scaling-stroke" d="
  M 2.29 853.95
  L 2.21 794.53"
/>
<path stroke="#1f2227" vector-effect="non-scaling-stroke" d="
  M 2.21 794.53
  Q 7.57 778.65 8.94 762.08
  C 9.59 754.27 9.14 743.06 9.06 736.53
  C 8.88 723.18 9.63 712.34 10.51 699.42
  C 12.28 673.53 12.12 647.37 11.04 621.47
  Q 9.35 580.85 9.05 540.21
  C 8.94 525.33 9.27 516.18 9.76 495.61
  C 10.05 483.59 9.83 470.78 9.09 461.62
  Q 6.77 433.06 6.82 425.96
  Q 6.92 412.55 7.99 394.04
  Q 8.71 381.68 7.91 372.31
  Q 6.37 354.20 2.90 319.16
  Q 2.66 316.69 1.59 318.92
  Q 1.46 319.21 1.32 320.85
  Q 0.66 328.99 0.00 337.13"
/>
<path stroke="#1c2024" vector-effect="non-scaling-stroke" d="
  M 283.53 397.76
  Q 279.88 400.12 278.49 401.25
  Q 266.04 411.45 254.58 423.46
  Q 252.01 426.15 251.29 427.37
  Q 249.55 430.29 248.39 431.62
  Q 246.24 434.08 244.27 438.08
  Q 242.09 442.49 238.39 448.29
  C 237.75 449.28 236.89 451.25 236.57 452.31
  Q 233.38 462.97 229.31 472.77
  C 228.83 473.93 228.44 476.12 228.32 477.38
  Q 226.99 491.38 226.83 505.56
  Q 226.70 517.43 228.29 526.90
  Q 228.30 526.98 228.43 527.05
  Q 228.44 527.05 228.68 527.08
  Q 228.71 527.08 228.71 527.04
  L 228.99 517.00"
/>
<path stroke="#919294" vector-effect="non-scaling-stroke" d="
  M 228.99 517.00
  Q 229.69 521.65 230.21 526.27
  Q 231.38 536.57 234.31 546.40"
/>
<path stroke="#1c2024" vector-effect="non-scaling-stroke" d="
  M 234.31 546.40
  C 232.80 551.76 234.35 556.92 236.40 562.14
  Q 241.74 575.75 249.88 587.92
  C 253.48 593.32 256.21 600.04 259.94 605.00
  Q 264.94 611.66 271.68 616.73
  Q 281.43 624.08 287.56 628.06
  Q 292.59 631.32 296.04 632.20
  Q 305.02 634.47 312.96 636.82
  C 325.34 640.48 335.36 641.92 349.59 644.13
  Q 360.91 645.88 368.88 645.64
  Q 412.04 644.31 418.86 644.04
  Q 421.02 643.95 422.75 643.46
  Q 423.18 643.34 422.94 642.96
  Q 422.79 642.71 422.53 642.72
  Q 408.37 643.00 394.21 642.65"
/>
<path stroke="#919294" vector-effect="non-scaling-stroke" d="
  M 394.21 642.65
  L 513.93 642.20"
/>
<path stroke="#1f2227" vector-effect="non-scaling-stroke" d="
  M 513.93 642.20
  Q 524.63 647.90 535.80 649.23
  C 546.54 650.52 557.47 650.46 570.07 649.52
  Q 588.68 648.14 594.88 647.75
  C 596.89 647.63 602.97 647.15 604.60 645.21
  A 0.90 0.89 35.2 0 0 604.36 643.85
  L 601.46 642.21"
/>
<path stroke="#919294" vector-effect="non-scaling-stroke" d="
  M 601.46 642.21
  Q 620.06 641.52 637.79 642.63"
/>
<path stroke="#1c2024" vector-effect="non-scaling-stroke" d="
  M 637.79 642.63
  Q 649.85 644.53 662.18 644.43
  Q 671.33 644.36 681.52 642.58
  Q 693.52 640.47 700.70 639.21
  Q 705.30 638.40 711.99 635.39
  C 716.46 633.38 721.19 632.78 725.30 630.61
  Q 730.51 627.86 735.23 624.24"
/>
<path stroke="#1f2227" vector-effect="non-scaling-stroke" d="
  M 735.23 624.24
  Q 745.57 621.75 755.84 619.10
  C 763.76 617.06 770.44 614.37 777.77 611.93
  Q 781.91 610.55 786.05 611.25
  C 789.91 611.90 793.18 609.33 795.65 606.39
  Q 800.94 600.09 811.82 585.53
  Q 816.23 579.64 818.32 575.76
  C 822.94 567.21 824.90 560.33 827.94 549.87
  C 831.14 538.88 835.69 526.98 838.19 516.71
  Q 843.10 496.54 836.40 477.41
  Q 833.59 469.40 826.87 459.90
  Q 819.23 449.10 811.25 440.94
  Q 783.84 412.92 770.53 399.23
  Q 755.55 383.82 743.51 365.02
  Q 740.58 360.44 730.07 343.74
  C 726.52 338.09 722.43 332.03 718.60 327.83
  Q 705.14 313.06 689.27 299.94
  Q 686.44 297.60 682.22 295.56
  Q 675.36 292.24 673.26 299.61"
/>
<path stroke="#919294" vector-effect="non-scaling-stroke" d="
  M 673.26 299.61
  Q 650.82 273.39 619.75 258.57"
/>
<path stroke="#1f2227" vector-effect="non-scaling-stroke" d="
  M 619.75 258.57
  Q 606.91 250.59 592.48 246.29
  Q 589.90 245.52 576.97 242.23
  C 566.78 239.64 556.77 238.58 546.94 239.74
  Q 531.31 241.60 508.38 245.56
  C 495.88 247.71 481.23 249.07 470.40 250.50
  Q 452.35 252.89 434.96 260.07
  Q 430.66 261.85 425.24 265.66
  Q 416.56 271.77 415.81 280.70
  C 415.40 285.49 418.20 292.05 411.89 293.65
  Q 407.74 294.70 403.90 294.78
  Q 389.76 295.08 377.68 296.68
  Q 370.44 297.64 357.86 301.53
  Q 350.97 303.66 345.31 306.75
  Q 339.32 310.03 332.04 315.80
  C 324.42 321.85 318.04 330.65 313.00 338.54
  Q 307.56 347.04 306.09 352.87
  Q 304.66 358.54 302.13 368.06
  C 300.74 373.28 300.56 377.62 299.65 382.39
  Q 298.78 386.94 295.61 389.10
  Q 289.47 393.29 283.53 397.76"
/>
<path stroke="#8e8f92" vector-effect="non-scaling-stroke" d="
  M 619.75 258.57
  Q 609.61 253.75 598.92 250.31
  Q 595.13 249.09 590.38 248.13
  C 584.25 246.90 575.27 245.01 568.70 244.40
  Q 533.99 241.21 502.65 249.67
  Q 493.44 252.16 478.73 258.70
  C 472.30 261.56 467.76 264.66 462.07 267.50
  Q 455.60 270.73 450.03 274.81
  Q 442.03 280.68 436.79 285.30
  Q 430.78 290.62 422.33 299.19
  C 421.35 300.18 420.68 300.23 419.42 299.88
  Q 410.16 297.31 399.31 296.95
  C 385.35 296.48 372.19 297.66 359.35 302.59
  Q 335.95 311.57 320.60 331.11
  Q 313.34 340.34 310.54 347.57
  Q 309.60 349.98 307.34 356.76
  Q 305.48 362.36 304.85 366.13
  Q 303.19 376.10 303.97 386.35
  A 1.29 1.27 72.7 0 1 303.36 387.53
  L 285.04 398.49"
/>
<path stroke="#191d22" vector-effect="non-scaling-stroke" d="
  M 285.04 398.49
  L 283.53 397.76"
/>
<path stroke="#8e8f92" vector-effect="non-scaling-stroke" d="
  M 673.26 299.61
  Q 677.02 304.35 681.00 309.26
  Q 686.27 315.77 692.23 326.85
  Q 694.07 330.28 695.78 334.10
  C 698.44 340.06 701.38 346.49 703.15 352.22
  C 706.34 362.56 707.63 372.99 708.36 383.62
  Q 708.44 384.68 709.46 384.94
  Q 729.06 389.91 746.12 402.60
  Q 767.59 418.58 781.23 441.47
  Q 784.44 446.86 787.37 452.20"
/>
<path stroke="#8b8d8f" vector-effect="non-scaling-stroke" d="
  M 787.37 452.20
  Q 806.50 491.58 797.19 534.73"
/>
<path stroke="#8e8f92" vector-effect="non-scaling-stroke" d="
  M 797.19 534.73
  Q 792.98 555.39 781.87 573.93
  Q 779.04 578.64 775.98 583.28"
/>
<path stroke="#8b8d8f" vector-effect="non-scaling-stroke" d="
  M 775.98 583.28
  Q 769.01 592.45 764.11 597.87
  C 756.94 605.80 748.02 612.50 738.36 619.23
  Q 732.81 623.10 726.80 626.17
  Q 700.12 639.83 670.38 641.97
  Q 666.66 642.24 654.10 642.24
  Q 646.07 642.25 637.79 642.63"
/>
<path stroke="#8e8f92" vector-effect="non-scaling-stroke" d="
  M 601.46 642.21
  L 513.93 642.20"
/>
<path stroke="#8b8d8f" vector-effect="non-scaling-stroke" d="
  M 394.21 642.65
  Q 384.11 642.68 374.00 642.70
  Q 361.00 642.73 354.06 641.94
  Q 332.84 639.56 312.76 631.30
  Q 303.32 627.42 295.12 622.26
  Q 281.47 613.68 269.67 602.59
  Q 251.36 585.39 240.78 563.24
  Q 236.54 554.35 234.31 546.40"
/>
<path stroke="#8b8d8f" vector-effect="non-scaling-stroke" d="
  M 228.99 517.00
  Q 228.09 494.48 232.51 472.27
  Q 232.64 471.63 235.58 464.22
  Q 236.85 461.00 238.08 457.10
  Q 239.85 451.42 240.71 449.99
  Q 243.71 444.96 245.94 440.68
  Q 248.70 435.38 251.61 431.68
  Q 258.99 422.32 261.47 419.47
  Q 271.51 407.98 285.04 398.49"
/>
<path stroke="#191d22" vector-effect="non-scaling-stroke" d="
  M 735.23 624.24
  Q 738.22 622.07 747.18 616.19
  Q 754.63 611.31 763.49 602.97
  C 767.00 599.67 770.23 597.76 772.88 594.22
  Q 777.28 588.32 778.49 585.95
  Q 783.83 575.47 784.36 574.12
  Q 784.95 572.60 785.11 571.69
  Q 785.40 570.03 784.61 571.48
  Q 781.04 578.06 775.98 583.28"
/>
<path stroke="#191d22" vector-effect="non-scaling-stroke" d="
  M 797.19 534.73
  Q 799.74 536.34 801.40 529.05
  Q 802.72 523.29 802.82 517.36
  Q 802.99 506.48 802.86 495.89
  Q 802.80 490.34 801.26 484.39
  Q 798.64 474.22 795.77 463.84
  Q 794.55 459.44 791.45 453.95
  Q 789.43 450.38 787.37 452.20"
/>
<path stroke="#8e8f92" vector-effect="non-scaling-stroke" d="
  M 402.99 340.41
  C 400.27 338.79 400.96 334.23 401.65 331.68
  Q 402.55 328.33 406.56 322.70
  Q 406.86 322.28 406.36 322.19
  Q 398.67 320.70 389.52 321.79
  Q 361.13 325.15 343.18 345.17
  Q 338.51 350.38 336.00 355.25
  Q 333.63 359.84 331.06 368.05
  Q 329.56 372.84 329.40 378.18
  A 0.34 0.34 0.0 0 0 329.77 378.54
  Q 341.30 377.62 352.87 378.53
  Q 354.61 378.67 355.10 378.82
  L 358.82 379.94
  Q 358.85 379.95 358.82 379.97
  Q 358.79 379.98 358.76 379.99
  Q 358.67 380.03 358.76 380.06
  Q 364.31 381.70 368.54 386.14
  Q 369.47 387.13 369.77 388.37
  Q 370.19 390.10 369.93 390.99
  Q 367.74 398.84 359.49 398.56
  Q 345.04 398.08 332.01 402.76
  Q 317.33 408.04 303.94 415.69
  Q 291.15 423.00 279.05 437.43"
/>
<path stroke="#8b8d8f" vector-effect="non-scaling-stroke" d="
  M 279.05 437.43
  Q 262.66 456.78 256.64 481.46"
/>
<path stroke="#8e8f92" vector-effect="non-scaling-stroke" d="
  M 256.64 481.46
  Q 249.36 511.18 258.30 540.46
  Q 259.76 545.24 262.85 551.91
  Q 266.19 559.09 268.44 562.93
  Q 271.85 568.75 279.48 577.88
  Q 292.66 593.67 310.54 603.56
  Q 314.95 606.01 322.69 609.08
  Q 332.16 612.85 335.35 613.68
  Q 352.50 618.13 366.50 618.10
  Q 440.62 617.94 514.75 618.00"
/>
<path stroke="#8b8d8f" vector-effect="non-scaling-stroke" d="
  M 514.75 618.00
  Q 538.88 618.59 563.05 617.70"
/>
<path stroke="#8e8f92" vector-effect="non-scaling-stroke" d="
  M 563.05 617.70
  Q 638.11 617.90 661.75 617.78
  Q 683.90 617.68 704.89 609.09"
/>
<path stroke="#8b8d8f" vector-effect="non-scaling-stroke" d="
  M 704.89 609.09
  Q 718.29 604.13 727.73 597.24
  Q 737.32 590.25 744.19 582.94
  Q 754.25 572.23 763.43 556.65
  Q 765.98 552.33 767.25 547.88
  Q 768.23 544.47 770.32 538.80
  Q 772.94 531.69 773.48 528.67
  Q 778.84 498.47 768.11 469.35"
/>
<path stroke="#8e8f92" vector-effect="non-scaling-stroke" d="
  M 768.11 469.35
  Q 765.73 462.34 761.46 455.42"
/>
<path stroke="#8b8d8f" vector-effect="non-scaling-stroke" d="
  M 761.46 455.42
  Q 749.71 436.29 732.01 422.64
  Q 722.71 415.47 715.45 412.52
  Q 707.11 409.13 696.57 406.93
  C 685.68 404.66 686.10 396.58 685.23 387.81
  Q 684.68 382.14 684.27 379.61
  Q 682.51 368.66 678.67 357.17
  C 675.06 346.40 671.13 336.40 664.64 327.41
  Q 656.36 315.94 651.58 310.98
  Q 628.23 286.78 596.36 276.44
  Q 577.34 270.27 558.39 268.65
  Q 545.76 267.57 532.51 269.33
  Q 521.32 270.82 512.78 272.72
  Q 501.25 275.28 490.13 280.64
  C 484.57 283.31 475.42 287.54 469.05 292.12
  Q 464.83 295.16 452.46 304.24
  Q 444.86 309.82 439.40 315.18
  Q 432.34 322.11 426.93 326.85
  Q 424.35 329.12 422.68 331.70
  C 419.35 336.85 417.28 342.60 409.83 341.59
  Q 404.35 340.84 402.99 340.41"
/>
<path stroke="#191d22" vector-effect="non-scaling-stroke" d="
  M 761.46 455.42
  Q 749.36 442.62 743.05 437.00
  Q 737.67 432.22 731.52 428.51
  Q 724.81 424.48 718.95 424.69
  Q 718.38 424.71 717.38 424.72
  Q 716.44 424.74 715.81 424.98
  Q 712.63 426.16 709.67 426.79
  Q 706.31 427.50 700.58 426.22
  Q 691.40 424.18 685.34 423.50
  C 679.34 422.83 672.46 424.80 672.67 432.28
  Q 672.82 437.45 674.82 442.15
  Q 679.55 453.25 681.09 456.86
  Q 688.32 473.79 682.63 490.80
  Q 677.99 504.69 676.86 508.40
  Q 671.85 524.82 671.90 541.23
  Q 671.91 544.37 672.02 556.03
  Q 672.07 562.06 667.28 564.81
  Q 663.15 567.19 656.00 571.18
  Q 646.72 576.37 641.69 586.46
  Q 640.62 588.61 634.62 600.87
  Q 631.16 607.95 624.83 613.62
  C 622.87 615.38 621.12 616.21 618.65 616.47
  Q 613.30 617.03 607.22 617.07
  Q 589.07 617.19 570.92 617.11
  Q 568.46 617.10 563.05 617.70"
/>
<path stroke="#191d22" vector-effect="non-scaling-stroke" d="
  M 514.75 618.00
  Q 509.93 617.75 505.10 617.68
  Q 499.61 617.60 495.53 616.84
  Q 487.20 615.29 481.30 613.58
  Q 471.26 610.67 460.53 604.32
  Q 441.05 592.76 425.06 577.98
  Q 407.39 561.64 398.57 537.79
  Q 396.98 533.50 386.24 505.04
  Q 385.84 503.99 383.71 500.15
  Q 382.15 497.36 382.08 493.96
  Q 381.92 486.55 381.76 462.15
  Q 381.72 456.93 380.55 443.52
  Q 378.96 425.31 381.32 405.93
  Q 382.78 393.91 388.28 384.98
  Q 394.77 374.45 396.31 371.74
  C 401.55 362.50 402.60 351.83 402.99 340.41"
/>
<path stroke="#191d22" vector-effect="non-scaling-stroke" d="
  M 768.11 469.35
  Q 767.79 474.71 769.06 480.11
  Q 770.97 488.29 770.98 488.36
  Q 774.11 507.57 771.64 524.79
  Q 770.72 531.20 768.75 536.02
  Q 767.42 539.28 761.75 553.53
  Q 760.00 557.93 757.88 561.10
  Q 755.90 564.06 748.89 573.77
  Q 743.52 581.22 738.83 585.55
  Q 732.06 591.80 726.69 595.59
  C 722.38 598.64 717.02 601.00 711.73 603.78
  Q 707.03 606.25 704.89 609.09"
/>
<path stroke="#191d22" vector-effect="non-scaling-stroke" d="
  M 256.64 481.46
  Q 262.05 473.53 264.97 464.13
  Q 266.11 460.44 266.99 458.71
  Q 268.31 456.12 269.99 453.74
  Q 274.07 447.94 277.60 441.79
  Q 278.53 440.17 279.05 437.43"
/>
<path stroke="#8b8d8f" vector-effect="non-scaling-stroke" d="
  M 593.91 301.58
  Q 590.97 298.90 587.88 297.65
  Q 571.37 290.95 553.18 291.81
  Q 551.82 291.87 550.07 292.88
  Q 548.54 293.76 547.87 295.12
  C 544.43 302.19 547.68 308.36 554.86 310.45
  Q 558.94 311.64 560.25 311.79
  Q 575.38 313.50 589.64 319.47
  A 1.70 1.70 0.0 0 0 591.92 318.43
  Q 592.98 315.16 594.70 309.73
  Q 595.54 307.07 595.62 304.37
  C 595.66 302.74 594.90 302.47 593.91 301.58"
/>
<path stroke="#8b8d8f" vector-effect="non-scaling-stroke" d="
  M 619.01 338.10
  Q 621.59 341.04 624.74 344.18
  C 627.47 346.90 629.64 350.81 631.15 353.86
  Q 636.47 364.64 637.93 367.89
  Q 639.61 371.62 642.10 374.41
  A 1.44 1.43 -28.6 0 0 643.54 374.83
  Q 648.11 373.57 653.12 371.10
  Q 657.86 368.76 656.40 363.79
  Q 653.77 354.88 647.66 346.76
  Q 642.86 340.36 642.24 339.15
  Q 640.50 335.71 635.97 328.29
  C 632.55 322.69 628.24 319.12 622.98 314.61
  C 621.21 313.10 616.49 310.46 614.60 312.34
  Q 610.94 316.00 609.02 322.91
  C 608.42 325.04 608.83 326.19 610.26 328.02
  Q 611.07 329.05 619.01 338.10"
/>
<path stroke="#8b8d8f" vector-effect="non-scaling-stroke" d="
  M 428.86 434.84
  Q 426.73 435.96 426.17 438.26
  Q 425.21 442.16 424.96 443.03
  Q 424.82 443.51 424.32 443.51
  C 420.79 443.53 417.48 443.30 414.24 443.53
  Q 404.47 444.21 394.70 444.61
  Q 389.74 444.81 387.98 445.69
  Q 384.35 447.51 384.44 452.53
  Q 384.97 481.96 384.77 495.85
  Q 384.73 498.15 385.86 499.60
  Q 388.86 503.47 394.82 503.63
  Q 410.21 504.05 423.54 503.84
  Q 424.05 503.83 424.25 504.30
  Q 425.79 507.83 428.78 510.95
  A 0.63 0.62 50.1 0 1 428.70 511.89
  Q 426.29 513.65 421.92 518.33
  Q 418.55 521.93 416.02 525.59
  Q 412.49 530.71 407.23 537.55
  Q 404.67 540.88 407.79 544.45
  Q 414.70 552.37 423.86 560.70
  Q 430.34 566.59 432.35 568.59
  Q 436.26 572.49 440.52 576.85
  C 441.53 577.88 443.00 578.38 444.20 577.70
  Q 459.83 568.81 473.73 556.51
  Q 474.12 556.17 474.56 556.46
  Q 477.13 558.20 480.28 558.49
  Q 480.82 558.54 480.88 559.08
  Q 481.63 566.50 484.00 574.76
  Q 484.56 576.72 486.43 591.81
  Q 486.74 594.34 487.75 596.13
  Q 487.99 596.57 488.46 596.75
  Q 489.66 597.21 491.21 597.22
  Q 518.67 597.32 533.17 597.58
  Q 535.79 597.62 537.00 597.18
  Q 539.27 596.35 539.49 593.77
  C 540.11 586.28 541.50 580.72 544.23 567.47
  Q 544.46 566.34 544.93 559.34
  A 0.84 0.81 84.1 0 1 545.51 558.60
  L 552.49 556.44
  Q 553.24 556.20 553.77 556.78
  Q 556.17 559.34 557.04 560.05
  Q 566.27 567.55 576.31 574.46
  Q 580.49 577.33 582.70 577.88
  Q 585.77 578.64 588.04 576.03
  Q 602.29 559.59 619.23 545.99
  Q 620.87 544.68 621.78 542.54
  Q 621.97 542.09 621.85 541.61
  Q 621.55 540.44 620.85 539.54
  Q 609.91 525.31 599.00 512.25
  A 1.34 1.33 40.0 0 1 598.86 510.72
  L 602.49 504.43
  A 0.58 0.57 14.1 0 1 602.97 504.15
  Q 610.00 504.02 633.87 503.04
  Q 635.73 502.97 636.86 502.49
  C 639.92 501.20 642.66 499.63 642.31 495.75
  Q 641.92 491.51 641.90 487.01
  Q 641.82 470.38 641.41 451.87
  Q 641.36 449.44 640.69 448.16
  C 638.50 443.98 633.94 444.45 630.00 444.38
  Q 616.75 444.14 603.26 443.86
  A 1.53 1.50 75.3 0 1 601.99 443.10
  L 598.22 436.57
  A 1.08 1.07 56.5 0 1 598.50 435.18
  Q 602.95 431.83 606.63 426.88
  Q 611.11 420.87 618.50 412.01
  Q 620.13 410.05 620.88 407.61
  C 621.39 405.94 620.61 404.65 619.37 403.62
  Q 618.66 403.03 612.67 398.42
  Q 609.97 396.34 609.17 395.45
  Q 606.35 392.33 588.91 373.33
  Q 588.22 372.58 586.37 370.87
  C 583.46 368.19 577.54 372.54 574.43 374.68
  Q 564.12 381.75 555.66 389.72
  A 1.98 1.98 0.0 0 1 553.07 389.82
  Q 549.64 387.06 544.88 387.47
  Q 544.29 387.52 544.27 386.93
  Q 543.78 368.84 540.06 351.00
  Q 539.40 347.83 536.51 347.84
  Q 508.04 347.94 495.81 348.09
  Q 494.12 348.11 489.27 348.47
  Q 488.38 348.54 487.08 349.26
  Q 486.23 349.73 486.01 351.07
  C 485.34 355.35 485.13 358.80 484.46 361.89
  Q 481.80 374.29 480.88 385.67
  A 1.34 1.34 0.0 0 1 479.65 386.89
  Q 475.17 387.26 471.78 389.27
  Q 471.38 389.50 470.98 389.25
  Q 468.57 387.70 468.11 387.28
  Q 459.63 379.44 452.84 374.72
  Q 450.24 372.92 445.57 370.78
  C 442.59 369.43 440.77 370.46 438.79 372.80
  C 436.08 376.01 431.90 380.34 428.19 383.85
  Q 410.21 400.88 407.61 403.10
  Q 405.27 405.10 406.23 407.74
  Q 407.39 410.92 408.27 412.00
  Q 415.66 421.08 423.72 429.60
  Q 426.21 432.24 428.91 434.42
  Q 429.21 434.67 428.86 434.84"
/>
<path stroke="#191d22" vector-effect="non-scaling-stroke" d="
  M 2.21 794.53
  L 2.06 723.46
  Q 2.06 723.41 2.01 723.41
  L 1.63 723.41
  A 0.23 0.22 90.0 0 0 1.41 723.64
  L 1.64 854.22
  A 0.33 0.33 0.0 0 0 2.18 854.48
  Q 2.23 854.44 2.29 853.95"
/>
<path stroke="#191d22" vector-effect="non-scaling-stroke" d="
  M 2.22 866.78
  L 1.83 865.86
  Q 1.61 865.33 1.61 865.93
  L 1.36 1003.67
  Q 1.36 1003.75 1.44 1003.75
  Q 1.54 1003.75 1.71 1003.75
  Q 1.76 1003.75 1.77 1003.69
  L 2.30 1000.79"
/>
<path stroke="#8b8d8f" vector-effect="non-scaling-stroke" d="
  M 452.57 516.74
  Q 444.49 523.52 436.34 533.29
  C 434.61 535.36 431.92 537.64 430.21 539.24
  Q 429.77 539.64 430.21 540.05
  Q 437.59 546.84 444.33 555.11
  A 1.08 1.07 -42.3 0 0 445.94 555.18
  Q 457.29 543.55 469.98 533.43
  Q 470.38 533.11 470.82 533.39
  Q 484.57 542.28 499.59 543.58
  Q 500.04 543.62 500.09 544.07
  L 503.75 577.80
  A 0.47 0.46 -7.1 0 0 504.28 578.21
  Q 512.93 576.93 521.73 578.15
  Q 522.21 578.21 522.19 577.73
  C 522.06 575.12 521.94 572.77 522.35 570.32
  Q 524.54 557.40 525.93 544.64
  A 1.12 1.12 0.0 0 1 526.93 543.65
  Q 543.42 542.03 556.62 532.40
  A 0.83 0.83 0.0 0 1 557.81 532.63
  C 559.78 535.82 561.77 538.43 564.68 540.85
  C 571.14 546.24 575.54 549.85 580.78 555.62
  A 0.61 0.60 -46.2 0 0 581.70 555.60
  Q 585.38 551.04 595.53 540.21
  Q 595.76 539.96 596.10 539.85
  Q 596.48 539.73 596.74 539.62
  Q 597.49 539.32 596.89 538.78
  C 593.70 535.95 590.23 533.28 587.61 530.06
  Q 581.69 522.81 575.68 517.79
  A 1.90 1.90 0.0 0 1 575.34 515.24
  Q 582.53 505.03 585.66 492.87
  C 586.36 490.13 587.57 486.92 588.39 484.75
  A 1.08 1.07 -78.9 0 1 589.42 484.05
  L 622.24 484.78
  Q 622.43 484.78 622.43 484.59
  L 622.43 462.78
  A 0.36 0.35 89.2 0 0 622.07 462.42
  Q 608.12 462.79 595.50 462.29
  Q 594.07 462.23 588.57 462.69
  A 0.35 0.34 -4.0 0 1 588.19 462.37
  Q 587.73 455.29 584.10 447.93
  Q 580.99 441.65 575.09 430.26
  A 0.80 0.80 0.0 0 1 575.40 429.20
  Q 578.05 427.67 579.94 425.45
  Q 584.83 419.75 590.16 414.45
  C 591.68 412.93 593.24 410.91 594.37 409.53
  C 595.13 408.60 595.92 408.26 597.04 407.69
  A 0.74 0.74 0.0 0 0 597.07 406.39
  Q 587.69 401.02 581.93 391.47
  A 0.43 0.43 0.0 0 0 581.25 391.40
  Q 573.91 399.25 563.18 407.66
  C 561.73 408.79 560.20 410.72 559.24 411.82
  A 1.16 1.16 0.0 0 1 557.79 412.07
  Q 542.75 403.55 525.71 400.47
  A 0.80 0.80 0.0 0 1 525.05 399.72
  Q 524.53 386.43 522.64 372.40
  C 522.47 371.13 522.53 369.29 522.65 367.86
  Q 522.77 366.46 521.38 366.59
  Q 511.11 367.52 503.67 366.68
  Q 503.09 366.62 503.11 367.20
  Q 503.30 372.15 502.48 377.59
  C 501.36 384.99 501.49 392.62 501.61 399.97
  A 1.71 1.70 -4.6 0 1 500.14 401.69
  Q 487.47 403.45 474.63 409.16
  Q 472.48 410.12 470.05 412.02
  A 1.10 1.10 0.0 0 1 468.67 411.99
  L 445.99 392.94
  A 1.11 1.11 0.0 0 0 444.38 393.13
  Q 438.58 401.11 431.11 406.52
  A 1.33 1.32 56.7 0 0 430.75 408.28
  Q 431.71 409.89 432.65 410.87
  Q 438.23 416.69 442.79 421.93
  C 445.34 424.86 447.60 426.66 451.18 429.65
  A 1.25 1.25 0.0 0 1 451.48 431.22
  Q 446.82 439.73 442.71 448.49
  C 440.86 452.43 440.11 456.49 438.79 461.69
  A 1.63 1.63 0.0 0 1 437.21 462.92
  Q 425.17 462.91 412.47 462.85
  C 410.34 462.85 408.20 462.51 405.88 462.20
  A 0.55 0.54 4.2 0 0 405.26 462.73
  L 404.78 484.35
  Q 404.77 484.75 405.17 484.73
  Q 415.76 484.29 430.67 484.27
  C 433.05 484.27 434.94 483.98 437.95 483.64
  A 0.30 0.29 80.9 0 1 438.26 483.87
  Q 441.17 496.37 448.01 509.11
  Q 450.45 513.67 452.61 516.06
  Q 452.95 516.43 452.57 516.74"
/>
<path stroke="#8b8d8f" vector-effect="non-scaling-stroke" d="
  M 466.35 494.51
  C 470.43 502.76 475.56 509.27 483.10 514.19
  Q 494.34 521.52 507.34 523.88
  Q 516.56 525.55 523.23 523.99
  C 531.55 522.05 539.01 519.31 546.01 513.53
  Q 561.29 500.91 565.11 482.71
  C 567.03 473.60 566.43 463.79 563.02 455.26
  Q 558.16 443.09 548.46 434.36
  C 546.30 432.42 543.00 430.38 540.76 428.91
  Q 537.17 426.55 534.59 425.49
  Q 521.40 420.03 507.48 421.25
  C 501.96 421.73 495.88 423.94 490.90 426.16
  Q 480.78 430.69 473.44 439.19
  Q 471.62 441.29 466.92 449.49
  Q 464.10 454.39 463.01 460.32
  Q 461.46 468.69 461.37 471.78
  Q 461.03 483.78 466.35 494.51"
/>
<path stroke="#8b8d8f" vector-effect="non-scaling-stroke" d="
  M 546.23 472.69
  A 32.54 32.54 0.0 0 0 513.69 440.15
  A 32.54 32.54 0.0 0 0 481.15 472.69
  A 32.54 32.54 0.0 0 0 513.69 505.23
  A 32.54 32.54 0.0 0 0 546.23 472.69"
/>
</g>
<path fill="#222529" d="
  M 1.35 0.00
  Q 0.91 2.07 0.93 4.25
  Q 1.39 55.79 1.04 95.78
  Q 0.95 105.93 1.38 122.28
  Q 1.58 130.00 1.18 145.56
  Q 1.05 150.68 1.11 152.90
  Q 1.23 157.22 0.92 160.27
  Q 0.46 164.79 0.70 171.27
  Q 1.53 192.82 1.13 210.26
  Q 1.11 211.12 1.14 215.76
  C 1.18 223.36 0.08 231.63 0.30 236.25
  Q 1.17 255.11 0.96 273.72
  Q 0.93 276.17 1.26 278.07
  Q 1.60 280.00 2.22 282.36
  Q 2.48 283.35 3.33 282.77
  Q 3.74 282.48 3.99 281.42
  Q 5.30 275.89 5.73 272.31
  Q 7.43 258.14 8.37 238.87
  C 9.19 222.08 9.83 205.73 9.90 188.46
  Q 9.99 166.98 10.26 147.68
  Q 10.40 138.01 13.82 98.48
  Q 15.04 84.33 14.74 57.98
  C 14.58 44.15 15.11 29.59 15.19 19.07
  Q 15.19 17.89 14.67 15.96
  Q 14.53 15.47 14.05 15.28
  Q 12.94 14.86 12.79 13.13
  Q 12.17 5.61 12.26 0.00
  L 1024.00 0.00
  L 1024.00 1024.00
  L 3.16 1024.00
  L 2.30 1000.79
  L 2.37 963.08
  Q 2.40 942.86 2.10 918.72
  Q 2.04 913.76 2.22 866.78
  L 2.29 853.95
  L 2.21 794.53
  Q 7.57 778.65 8.94 762.08
  C 9.59 754.27 9.14 743.06 9.06 736.53
  C 8.88 723.18 9.63 712.34 10.51 699.42
  C 12.28 673.53 12.12 647.37 11.04 621.47
  Q 9.35 580.85 9.05 540.21
  C 8.94 525.33 9.27 516.18 9.76 495.61
  C 10.05 483.59 9.83 470.78 9.09 461.62
  Q 6.77 433.06 6.82 425.96
  Q 6.92 412.55 7.99 394.04
  Q 8.71 381.68 7.91 372.31
  Q 6.37 354.20 2.90 319.16
  Q 2.66 316.69 1.59 318.92
  Q 1.46 319.21 1.32 320.85
  Q 0.66 328.99 0.00 337.13
  L 0.00 0.00
  L 1.35 0.00
  Z
  M 283.53 397.76
  Q 279.88 400.12 278.49 401.25
  Q 266.04 411.45 254.58 423.46
  Q 252.01 426.15 251.29 427.37
  Q 249.55 430.29 248.39 431.62
  Q 246.24 434.08 244.27 438.08
  Q 242.09 442.49 238.39 448.29
  C 237.75 449.28 236.89 451.25 236.57 452.31
  Q 233.38 462.97 229.31 472.77
  C 228.83 473.93 228.44 476.12 228.32 477.38
  Q 226.99 491.38 226.83 505.56
  Q 226.70 517.43 228.29 526.90
  Q 228.30 526.98 228.43 527.05
  Q 228.44 527.05 228.68 527.08
  Q 228.71 527.08 228.71 527.04
  L 228.99 517.00
  Q 229.69 521.65 230.21 526.27
  Q 231.38 536.57 234.31 546.40
  C 232.80 551.76 234.35 556.92 236.40 562.14
  Q 241.74 575.75 249.88 587.92
  C 253.48 593.32 256.21 600.04 259.94 605.00
  Q 264.94 611.66 271.68 616.73
  Q 281.43 624.08 287.56 628.06
  Q 292.59 631.32 296.04 632.20
  Q 305.02 634.47 312.96 636.82
  C 325.34 640.48 335.36 641.92 349.59 644.13
  Q 360.91 645.88 368.88 645.64
  Q 412.04 644.31 418.86 644.04
  Q 421.02 643.95 422.75 643.46
  Q 423.18 643.34 422.94 642.96
  Q 422.79 642.71 422.53 642.72
  Q 408.37 643.00 394.21 642.65
  L 513.93 642.20
  Q 524.63 647.90 535.80 649.23
  C 546.54 650.52 557.47 650.46 570.07 649.52
  Q 588.68 648.14 594.88 647.75
  C 596.89 647.63 602.97 647.15 604.60 645.21
  A 0.90 0.89 35.2 0 0 604.36 643.85
  L 601.46 642.21
  Q 620.06 641.52 637.79 642.63
  Q 649.85 644.53 662.18 644.43
  Q 671.33 644.36 681.52 642.58
  Q 693.52 640.47 700.70 639.21
  Q 705.30 638.40 711.99 635.39
  C 716.46 633.38 721.19 632.78 725.30 630.61
  Q 730.51 627.86 735.23 624.24
  Q 745.57 621.75 755.84 619.10
  C 763.76 617.06 770.44 614.37 777.77 611.93
  Q 781.91 610.55 786.05 611.25
  C 789.91 611.90 793.18 609.33 795.65 606.39
  Q 800.94 600.09 811.82 585.53
  Q 816.23 579.64 818.32 575.76
  C 822.94 567.21 824.90 560.33 827.94 549.87
  C 831.14 538.88 835.69 526.98 838.19 516.71
  Q 843.10 496.54 836.40 477.41
  Q 833.59 469.40 826.87 459.90
  Q 819.23 449.10 811.25 440.94
  Q 783.84 412.92 770.53 399.23
  Q 755.55 383.82 743.51 365.02
  Q 740.58 360.44 730.07 343.74
  C 726.52 338.09 722.43 332.03 718.60 327.83
  Q 705.14 313.06 689.27 299.94
  Q 686.44 297.60 682.22 295.56
  Q 675.36 292.24 673.26 299.61
  Q 650.82 273.39 619.75 258.57
  Q 606.91 250.59 592.48 246.29
  Q 589.90 245.52 576.97 242.23
  C 566.78 239.64 556.77 238.58 546.94 239.74
  Q 531.31 241.60 508.38 245.56
  C 495.88 247.71 481.23 249.07 470.40 250.50
  Q 452.35 252.89 434.96 260.07
  Q 430.66 261.85 425.24 265.66
  Q 416.56 271.77 415.81 280.70
  C 415.40 285.49 418.20 292.05 411.89 293.65
  Q 407.74 294.70 403.90 294.78
  Q 389.76 295.08 377.68 296.68
  Q 370.44 297.64 357.86 301.53
  Q 350.97 303.66 345.31 306.75
  Q 339.32 310.03 332.04 315.80
  C 324.42 321.85 318.04 330.65 313.00 338.54
  Q 307.56 347.04 306.09 352.87
  Q 304.66 358.54 302.13 368.06
  C 300.74 373.28 300.56 377.62 299.65 382.39
  Q 298.78 386.94 295.61 389.10
  Q 289.47 393.29 283.53 397.76
  Z"
/>
<path fill="#1c1e24" d="
  M 12.26 0.00
  Q 12.17 5.61 12.79 13.13
  Q 12.94 14.86 14.05 15.28
  Q 14.53 15.47 14.67 15.96
  Q 15.19 17.89 15.19 19.07
  C 15.11 29.59 14.58 44.15 14.74 57.98
  Q 15.04 84.33 13.82 98.48
  Q 10.40 138.01 10.26 147.68
  Q 9.99 166.98 9.90 188.46
  C 9.83 205.73 9.19 222.08 8.37 238.87
  Q 7.43 258.14 5.73 272.31
  Q 5.30 275.89 3.99 281.42
  Q 3.74 282.48 3.33 282.77
  Q 2.48 283.35 2.22 282.36
  Q 1.60 280.00 1.26 278.07
  Q 0.93 276.17 0.96 273.72
  Q 1.17 255.11 0.30 236.25
  C 0.08 231.63 1.18 223.36 1.14 215.76
  Q 1.11 211.12 1.13 210.26
  Q 1.53 192.82 0.70 171.27
  Q 0.46 164.79 0.92 160.27
  Q 1.23 157.22 1.11 152.90
  Q 1.05 150.68 1.18 145.56
  Q 1.58 130.00 1.38 122.28
  Q 0.95 105.93 1.04 95.78
  Q 1.39 55.79 0.93 4.25
  Q 0.91 2.07 1.35 0.00
  L 12.26 0.00
  Z"
/>
<path fill="#1c1e24" d="
  M 619.75 258.57
  Q 609.61 253.75 598.92 250.31
  Q 595.13 249.09 590.38 248.13
  C 584.25 246.90 575.27 245.01 568.70 244.40
  Q 533.99 241.21 502.65 249.67
  Q 493.44 252.16 478.73 258.70
  C 472.30 261.56 467.76 264.66 462.07 267.50
  Q 455.60 270.73 450.03 274.81
  Q 442.03 280.68 436.79 285.30
  Q 430.78 290.62 422.33 299.19
  C 421.35 300.18 420.68 300.23 419.42 299.88
  Q 410.16 297.31 399.31 296.95
  C 385.35 296.48 372.19 297.66 359.35 302.59
  Q 335.95 311.57 320.60 331.11
  Q 313.34 340.34 310.54 347.57
  Q 309.60 349.98 307.34 356.76
  Q 305.48 362.36 304.85 366.13
  Q 303.19 376.10 303.97 386.35
  A 1.29 1.27 72.7 0 1 303.36 387.53
  L 285.04 398.49
  L 283.53 397.76
  Q 289.47 393.29 295.61 389.10
  Q 298.78 386.94 299.65 382.39
  C 300.56 377.62 300.74 373.28 302.13 368.06
  Q 304.66 358.54 306.09 352.87
  Q 307.56 347.04 313.00 338.54
  C 318.04 330.65 324.42 321.85 332.04 315.80
  Q 339.32 310.03 345.31 306.75
  Q 350.97 303.66 357.86 301.53
  Q 370.44 297.64 377.68 296.68
  Q 389.76 295.08 403.90 294.78
  Q 407.74 294.70 411.89 293.65
  C 418.20 292.05 415.40 285.49 415.81 280.70
  Q 416.56 271.77 425.24 265.66
  Q 430.66 261.85 434.96 260.07
  Q 452.35 252.89 470.40 250.50
  C 481.23 249.07 495.88 247.71 508.38 245.56
  Q 531.31 241.60 546.94 239.74
  C 556.77 238.58 566.78 239.64 576.97 242.23
  Q 589.90 245.52 592.48 246.29
  Q 606.91 250.59 619.75 258.57
  Z"
/>
<path fill="#ffffff" d="
  M 619.75 258.57
  Q 650.82 273.39 673.26 299.61
  Q 677.02 304.35 681.00 309.26
  Q 686.27 315.77 692.23 326.85
  Q 694.07 330.28 695.78 334.10
  C 698.44 340.06 701.38 346.49 703.15 352.22
  C 706.34 362.56 707.63 372.99 708.36 383.62
  Q 708.44 384.68 709.46 384.94
  Q 729.06 389.91 746.12 402.60
  Q 767.59 418.58 781.23 441.47
  Q 784.44 446.86 787.37 452.20
  Q 806.50 491.58 797.19 534.73
  Q 792.98 555.39 781.87 573.93
  Q 779.04 578.64 775.98 583.28
  Q 769.01 592.45 764.11 597.87
  C 756.94 605.80 748.02 612.50 738.36 619.23
  Q 732.81 623.10 726.80 626.17
  Q 700.12 639.83 670.38 641.97
  Q 666.66 642.24 654.10 642.24
  Q 646.07 642.25 637.79 642.63
  Q 620.06 641.52 601.46 642.21
  L 513.93 642.20
  L 394.21 642.65
  Q 384.11 642.68 374.00 642.70
  Q 361.00 642.73 354.06 641.94
  Q 332.84 639.56 312.76 631.30
  Q 303.32 627.42 295.12 622.26
  Q 281.47 613.68 269.67 602.59
  Q 251.36 585.39 240.78 563.24
  Q 236.54 554.35 234.31 546.40
  Q 231.38 536.57 230.21 526.27
  Q 229.69 521.65 228.99 517.00
  Q 228.09 494.48 232.51 472.27
  Q 232.64 471.63 235.58 464.22
  Q 236.85 461.00 238.08 457.10
  Q 239.85 451.42 240.71 449.99
  Q 243.71 444.96 245.94 440.68
  Q 248.70 435.38 251.61 431.68
  Q 258.99 422.32 261.47 419.47
  Q 271.51 407.98 285.04 398.49
  L 303.36 387.53
  A 1.29 1.27 72.7 0 0 303.97 386.35
  Q 303.19 376.10 304.85 366.13
  Q 305.48 362.36 307.34 356.76
  Q 309.60 349.98 310.54 347.57
  Q 313.34 340.34 320.60 331.11
  Q 335.95 311.57 359.35 302.59
  C 372.19 297.66 385.35 296.48 399.31 296.95
  Q 410.16 297.31 419.42 299.88
  C 420.68 300.23 421.35 300.18 422.33 299.19
  Q 430.78 290.62 436.79 285.30
  Q 442.03 280.68 450.03 274.81
  Q 455.60 270.73 462.07 267.50
  C 467.76 264.66 472.30 261.56 478.73 258.70
  Q 493.44 252.16 502.65 249.67
  Q 533.99 241.21 568.70 244.40
  C 575.27 245.01 584.25 246.90 590.38 248.13
  Q 595.13 249.09 598.92 250.31
  Q 609.61 253.75 619.75 258.57
  Z
  M 402.99 340.41
  C 400.27 338.79 400.96 334.23 401.65 331.68
  Q 402.55 328.33 406.56 322.70
  Q 406.86 322.28 406.36 322.19
  Q 398.67 320.70 389.52 321.79
  Q 361.13 325.15 343.18 345.17
  Q 338.51 350.38 336.00 355.25
  Q 333.63 359.84 331.06 368.05
  Q 329.56 372.84 329.40 378.18
  A 0.34 0.34 0.0 0 0 329.77 378.54
  Q 341.30 377.62 352.87 378.53
  Q 354.61 378.67 355.10 378.82
  L 358.82 379.94
  Q 358.85 379.95 358.82 379.97
  Q 358.79 379.98 358.76 379.99
  Q 358.67 380.03 358.76 380.06
  Q 364.31 381.70 368.54 386.14
  Q 369.47 387.13 369.77 388.37
  Q 370.19 390.10 369.93 390.99
  Q 367.74 398.84 359.49 398.56
  Q 345.04 398.08 332.01 402.76
  Q 317.33 408.04 303.94 415.69
  Q 291.15 423.00 279.05 437.43
  Q 262.66 456.78 256.64 481.46
  Q 249.36 511.18 258.30 540.46
  Q 259.76 545.24 262.85 551.91
  Q 266.19 559.09 268.44 562.93
  Q 271.85 568.75 279.48 577.88
  Q 292.66 593.67 310.54 603.56
  Q 314.95 606.01 322.69 609.08
  Q 332.16 612.85 335.35 613.68
  Q 352.50 618.13 366.50 618.10
  Q 440.62 617.94 514.75 618.00
  Q 538.88 618.59 563.05 617.70
  Q 638.11 617.90 661.75 617.78
  Q 683.90 617.68 704.89 609.09
  Q 718.29 604.13 727.73 597.24
  Q 737.32 590.25 744.19 582.94
  Q 754.25 572.23 763.43 556.65
  Q 765.98 552.33 767.25 547.88
  Q 768.23 544.47 770.32 538.80
  Q 772.94 531.69 773.48 528.67
  Q 778.84 498.47 768.11 469.35
  Q 765.73 462.34 761.46 455.42
  Q 749.71 436.29 732.01 422.64
  Q 722.71 415.47 715.45 412.52
  Q 707.11 409.13 696.57 406.93
  C 685.68 404.66 686.10 396.58 685.23 387.81
  Q 684.68 382.14 684.27 379.61
  Q 682.51 368.66 678.67 357.17
  C 675.06 346.40 671.13 336.40 664.64 327.41
  Q 656.36 315.94 651.58 310.98
  Q 628.23 286.78 596.36 276.44
  Q 577.34 270.27 558.39 268.65
  Q 545.76 267.57 532.51 269.33
  Q 521.32 270.82 512.78 272.72
  Q 501.25 275.28 490.13 280.64
  C 484.57 283.31 475.42 287.54 469.05 292.12
  Q 464.83 295.16 452.46 304.24
  Q 444.86 309.82 439.40 315.18
  Q 432.34 322.11 426.93 326.85
  Q 424.35 329.12 422.68 331.70
  C 419.35 336.85 417.28 342.60 409.83 341.59
  Q 404.35 340.84 402.99 340.41
  Z"
/>
<path fill="#161b1f" d="
  M 761.46 455.42
  Q 749.36 442.62 743.05 437.00
  Q 737.67 432.22 731.52 428.51
  Q 724.81 424.48 718.95 424.69
  Q 718.38 424.71 717.38 424.72
  Q 716.44 424.74 715.81 424.98
  Q 712.63 426.16 709.67 426.79
  Q 706.31 427.50 700.58 426.22
  Q 691.40 424.18 685.34 423.50
  C 679.34 422.83 672.46 424.80 672.67 432.28
  Q 672.82 437.45 674.82 442.15
  Q 679.55 453.25 681.09 456.86
  Q 688.32 473.79 682.63 490.80
  Q 677.99 504.69 676.86 508.40
  Q 671.85 524.82 671.90 541.23
  Q 671.91 544.37 672.02 556.03
  Q 672.07 562.06 667.28 564.81
  Q 663.15 567.19 656.00 571.18
  Q 646.72 576.37 641.69 586.46
  Q 640.62 588.61 634.62 600.87
  Q 631.16 607.95 624.83 613.62
  C 622.87 615.38 621.12 616.21 618.65 616.47
  Q 613.30 617.03 607.22 617.07
  Q 589.07 617.19 570.92 617.11
  Q 568.46 617.10 563.05 617.70
  Q 538.88 618.59 514.75 618.00
  Q 509.93 617.75 505.10 617.68
  Q 499.61 617.60 495.53 616.84
  Q 487.20 615.29 481.30 613.58
  Q 471.26 610.67 460.53 604.32
  Q 441.05 592.76 425.06 577.98
  Q 407.39 561.64 398.57 537.79
  Q 396.98 533.50 386.24 505.04
  Q 385.84 503.99 383.71 500.15
  Q 382.15 497.36 382.08 493.96
  Q 381.92 486.55 381.76 462.15
  Q 381.72 456.93 380.55 443.52
  Q 378.96 425.31 381.32 405.93
  Q 382.78 393.91 388.28 384.98
  Q 394.77 374.45 396.31 371.74
  C 401.55 362.50 402.60 351.83 402.99 340.41
  Q 404.35 340.84 409.83 341.59
  C 417.28 342.60 419.35 336.85 422.68 331.70
  Q 424.35 329.12 426.93 326.85
  Q 432.34 322.11 439.40 315.18
  Q 444.86 309.82 452.46 304.24
  Q 464.83 295.16 469.05 292.12
  C 475.42 287.54 484.57 283.31 490.13 280.64
  Q 501.25 275.28 512.78 272.72
  Q 521.32 270.82 532.51 269.33
  Q 545.76 267.57 558.39 268.65
  Q 577.34 270.27 596.36 276.44
  Q 628.23 286.78 651.58 310.98
  Q 656.36 315.94 664.64 327.41
  C 671.13 336.40 675.06 346.40 678.67 357.17
  Q 682.51 368.66 684.27 379.61
  Q 684.68 382.14 685.23 387.81
  C 686.10 396.58 685.68 404.66 696.57 406.93
  Q 707.11 409.13 715.45 412.52
  Q 722.71 415.47 732.01 422.64
  Q 749.71 436.29 761.46 455.42
  Z
  M 593.91 301.58
  Q 590.97 298.90 587.88 297.65
  Q 571.37 290.95 553.18 291.81
  Q 551.82 291.87 550.07 292.88
  Q 548.54 293.76 547.87 295.12
  C 544.43 302.19 547.68 308.36 554.86 310.45
  Q 558.94 311.64 560.25 311.79
  Q 575.38 313.50 589.64 319.47
  A 1.70 1.70 0.0 0 0 591.92 318.43
  Q 592.98 315.16 594.70 309.73
  Q 595.54 307.07 595.62 304.37
  C 595.66 302.74 594.90 302.47 593.91 301.58
  Z
  M 619.01 338.10
  Q 621.59 341.04 624.74 344.18
  C 627.47 346.90 629.64 350.81 631.15 353.86
  Q 636.47 364.64 637.93 367.89
  Q 639.61 371.62 642.10 374.41
  A 1.44 1.43 -28.6 0 0 643.54 374.83
  Q 648.11 373.57 653.12 371.10
  Q 657.86 368.76 656.40 363.79
  Q 653.77 354.88 647.66 346.76
  Q 642.86 340.36 642.24 339.15
  Q 640.50 335.71 635.97 328.29
  C 632.55 322.69 628.24 319.12 622.98 314.61
  C 621.21 313.10 616.49 310.46 614.60 312.34
  Q 610.94 316.00 609.02 322.91
  C 608.42 325.04 608.83 326.19 610.26 328.02
  Q 611.07 329.05 619.01 338.10
  Z
  M 428.86 434.84
  Q 426.73 435.96 426.17 438.26
  Q 425.21 442.16 424.96 443.03
  Q 424.82 443.51 424.32 443.51
  C 420.79 443.53 417.48 443.30 414.24 443.53
  Q 404.47 444.21 394.70 444.61
  Q 389.74 444.81 387.98 445.69
  Q 384.35 447.51 384.44 452.53
  Q 384.97 481.96 384.77 495.85
  Q 384.73 498.15 385.86 499.60
  Q 388.86 503.47 394.82 503.63
  Q 410.21 504.05 423.54 503.84
  Q 424.05 503.83 424.25 504.30
  Q 425.79 507.83 428.78 510.95
  A 0.63 0.62 50.1 0 1 428.70 511.89
  Q 426.29 513.65 421.92 518.33
  Q 418.55 521.93 416.02 525.59
  Q 412.49 530.71 407.23 537.55
  Q 404.67 540.88 407.79 544.45
  Q 414.70 552.37 423.86 560.70
  Q 430.34 566.59 432.35 568.59
  Q 436.26 572.49 440.52 576.85
  C 441.53 577.88 443.00 578.38 444.20 577.70
  Q 459.83 568.81 473.73 556.51
  Q 474.12 556.17 474.56 556.46
  Q 477.13 558.20 480.28 558.49
  Q 480.82 558.54 480.88 559.08
  Q 481.63 566.50 484.00 574.76
  Q 484.56 576.72 486.43 591.81
  Q 486.74 594.34 487.75 596.13
  Q 487.99 596.57 488.46 596.75
  Q 489.66 597.21 491.21 597.22
  Q 518.67 597.32 533.17 597.58
  Q 535.79 597.62 537.00 597.18
  Q 539.27 596.35 539.49 593.77
  C 540.11 586.28 541.50 580.72 544.23 567.47
  Q 544.46 566.34 544.93 559.34
  A 0.84 0.81 84.1 0 1 545.51 558.60
  L 552.49 556.44
  Q 553.24 556.20 553.77 556.78
  Q 556.17 559.34 557.04 560.05
  Q 566.27 567.55 576.31 574.46
  Q 580.49 577.33 582.70 577.88
  Q 585.77 578.64 588.04 576.03
  Q 602.29 559.59 619.23 545.99
  Q 620.87 544.68 621.78 542.54
  Q 621.97 542.09 621.85 541.61
  Q 621.55 540.44 620.85 539.54
  Q 609.91 525.31 599.00 512.25
  A 1.34 1.33 40.0 0 1 598.86 510.72
  L 602.49 504.43
  A 0.58 0.57 14.1 0 1 602.97 504.15
  Q 610.00 504.02 633.87 503.04
  Q 635.73 502.97 636.86 502.49
  C 639.92 501.20 642.66 499.63 642.31 495.75
  Q 641.92 491.51 641.90 487.01
  Q 641.82 470.38 641.41 451.87
  Q 641.36 449.44 640.69 448.16
  C 638.50 443.98 633.94 444.45 630.00 444.38
  Q 616.75 444.14 603.26 443.86
  A 1.53 1.50 75.3 0 1 601.99 443.10
  L 598.22 436.57
  A 1.08 1.07 56.5 0 1 598.50 435.18
  Q 602.95 431.83 606.63 426.88
  Q 611.11 420.87 618.50 412.01
  Q 620.13 410.05 620.88 407.61
  C 621.39 405.94 620.61 404.65 619.37 403.62
  Q 618.66 403.03 612.67 398.42
  Q 609.97 396.34 609.17 395.45
  Q 606.35 392.33 588.91 373.33
  Q 588.22 372.58 586.37 370.87
  C 583.46 368.19 577.54 372.54 574.43 374.68
  Q 564.12 381.75 555.66 389.72
  A 1.98 1.98 0.0 0 1 553.07 389.82
  Q 549.64 387.06 544.88 387.47
  Q 544.29 387.52 544.27 386.93
  Q 543.78 368.84 540.06 351.00
  Q 539.40 347.83 536.51 347.84
  Q 508.04 347.94 495.81 348.09
  Q 494.12 348.11 489.27 348.47
  Q 488.38 348.54 487.08 349.26
  Q 486.23 349.73 486.01 351.07
  C 485.34 355.35 485.13 358.80 484.46 361.89
  Q 481.80 374.29 480.88 385.67
  A 1.34 1.34 0.0 0 1 479.65 386.89
  Q 475.17 387.26 471.78 389.27
  Q 471.38 389.50 470.98 389.25
  Q 468.57 387.70 468.11 387.28
  Q 459.63 379.44 452.84 374.72
  Q 450.24 372.92 445.57 370.78
  C 442.59 369.43 440.77 370.46 438.79 372.80
  C 436.08 376.01 431.90 380.34 428.19 383.85
  Q 410.21 400.88 407.61 403.10
  Q 405.27 405.10 406.23 407.74
  Q 407.39 410.92 408.27 412.00
  Q 415.66 421.08 423.72 429.60
  Q 426.21 432.24 428.91 434.42
  Q 429.21 434.67 428.86 434.84
  Z"
/>
<path fill="#1c1e24" d="
  M 735.23 624.24
  Q 738.22 622.07 747.18 616.19
  Q 754.63 611.31 763.49 602.97
  C 767.00 599.67 770.23 597.76 772.88 594.22
  Q 777.28 588.32 778.49 585.95
  Q 783.83 575.47 784.36 574.12
  Q 784.95 572.60 785.11 571.69
  Q 785.40 570.03 784.61 571.48
  Q 781.04 578.06 775.98 583.28
  Q 779.04 578.64 781.87 573.93
  Q 792.98 555.39 797.19 534.73
  Q 799.74 536.34 801.40 529.05
  Q 802.72 523.29 802.82 517.36
  Q 802.99 506.48 802.86 495.89
  Q 802.80 490.34 801.26 484.39
  Q 798.64 474.22 795.77 463.84
  Q 794.55 459.44 791.45 453.95
  Q 789.43 450.38 787.37 452.20
  Q 784.44 446.86 781.23 441.47
  Q 767.59 418.58 746.12 402.60
  Q 729.06 389.91 709.46 384.94
  Q 708.44 384.68 708.36 383.62
  C 707.63 372.99 706.34 362.56 703.15 352.22
  C 701.38 346.49 698.44 340.06 695.78 334.10
  Q 694.07 330.28 692.23 326.85
  Q 686.27 315.77 681.00 309.26
  Q 677.02 304.35 673.26 299.61
  Q 675.36 292.24 682.22 295.56
  Q 686.44 297.60 689.27 299.94
  Q 705.14 313.06 718.60 327.83
  C 722.43 332.03 726.52 338.09 730.07 343.74
  Q 740.58 360.44 743.51 365.02
  Q 755.55 383.82 770.53 399.23
  Q 783.84 412.92 811.25 440.94
  Q 819.23 449.10 826.87 459.90
  Q 833.59 469.40 836.40 477.41
  Q 843.10 496.54 838.19 516.71
  C 835.69 526.98 831.14 538.88 827.94 549.87
  C 824.90 560.33 822.94 567.21 818.32 575.76
  Q 816.23 579.64 811.82 585.53
  Q 800.94 600.09 795.65 606.39
  C 793.18 609.33 789.91 611.90 786.05 611.25
  Q 781.91 610.55 777.77 611.93
  C 770.44 614.37 763.76 617.06 755.84 619.10
  Q 745.57 621.75 735.23 624.24
  Z"
/>
<path fill="#ffffff" d="
  M 593.91 301.58
  C 594.90 302.47 595.66 302.74 595.62 304.37
  Q 595.54 307.07 594.70 309.73
  Q 592.98 315.16 591.92 318.43
  A 1.70 1.70 0.0 0 1 589.64 319.47
  Q 575.38 313.50 560.25 311.79
  Q 558.94 311.64 554.86 310.45
  C 547.68 308.36 544.43 302.19 547.87 295.12
  Q 548.54 293.76 550.07 292.88
  Q 551.82 291.87 553.18 291.81
  Q 571.37 290.95 587.88 297.65
  Q 590.97 298.90 593.91 301.58
  Z"
/>
<path fill="#1c1e24" d="
  M 2.21 794.53
  L 2.06 723.46
  Q 2.06 723.41 2.01 723.41
  L 1.63 723.41
  A 0.23 0.22 90.0 0 0 1.41 723.64
  L 1.64 854.22
  A 0.33 0.33 0.0 0 0 2.18 854.48
  Q 2.23 854.44 2.29 853.95
  L 2.22 866.78
  L 1.83 865.86
  Q 1.61 865.33 1.61 865.93
  L 1.36 1003.67
  Q 1.36 1003.75 1.44 1003.75
  Q 1.54 1003.75 1.71 1003.75
  Q 1.76 1003.75 1.77 1003.69
  L 2.30 1000.79
  L 3.16 1024.00
  L 0.00 1024.00
  L 0.00 337.13
  Q 0.66 328.99 1.32 320.85
  Q 1.46 319.21 1.59 318.92
  Q 2.66 316.69 2.90 319.16
  Q 6.37 354.20 7.91 372.31
  Q 8.71 381.68 7.99 394.04
  Q 6.92 412.55 6.82 425.96
  Q 6.77 433.06 9.09 461.62
  C 9.83 470.78 10.05 483.59 9.76 495.61
  C 9.27 516.18 8.94 525.33 9.05 540.21
  Q 9.35 580.85 11.04 621.47
  C 12.12 647.37 12.28 673.53 10.51 699.42
  C 9.63 712.34 8.88 723.18 9.06 736.53
  C 9.14 743.06 9.59 754.27 8.94 762.08
  Q 7.57 778.65 2.21 794.53
  Z"
/>
<path fill="#ffffff" d="
  M 619.01 338.10
  Q 611.07 329.05 610.26 328.02
  C 608.83 326.19 608.42 325.04 609.02 322.91
  Q 610.94 316.00 614.60 312.34
  C 616.49 310.46 621.21 313.10 622.98 314.61
  C 628.24 319.12 632.55 322.69 635.97 328.29
  Q 640.50 335.71 642.24 339.15
  Q 642.86 340.36 647.66 346.76
  Q 653.77 354.88 656.40 363.79
  Q 657.86 368.76 653.12 371.10
  Q 648.11 373.57 643.54 374.83
  A 1.44 1.43 -28.6 0 1 642.10 374.41
  Q 639.61 371.62 637.93 367.89
  Q 636.47 364.64 631.15 353.86
  C 629.64 350.81 627.47 346.90 624.74 344.18
  Q 621.59 341.04 619.01 338.10
  Z"
/>
<path fill="#1c1e24" d="
  M 402.99 340.41
  C 402.60 351.83 401.55 362.50 396.31 371.74
  Q 394.77 374.45 388.28 384.98
  Q 382.78 393.91 381.32 405.93
  Q 378.96 425.31 380.55 443.52
  Q 381.72 456.93 381.76 462.15
  Q 381.92 486.55 382.08 493.96
  Q 382.15 497.36 383.71 500.15
  Q 385.84 503.99 386.24 505.04
  Q 396.98 533.50 398.57 537.79
  Q 407.39 561.64 425.06 577.98
  Q 441.05 592.76 460.53 604.32
  Q 471.26 610.67 481.30 613.58
  Q 487.20 615.29 495.53 616.84
  Q 499.61 617.60 505.10 617.68
  Q 509.93 617.75 514.75 618.00
  Q 440.62 617.94 366.50 618.10
  Q 352.50 618.13 335.35 613.68
  Q 332.16 612.85 322.69 609.08
  Q 314.95 606.01 310.54 603.56
  Q 292.66 593.67 279.48 577.88
  Q 271.85 568.75 268.44 562.93
  Q 266.19 559.09 262.85 551.91
  Q 259.76 545.24 258.30 540.46
  Q 249.36 511.18 256.64 481.46
  Q 262.05 473.53 264.97 464.13
  Q 266.11 460.44 266.99 458.71
  Q 268.31 456.12 269.99 453.74
  Q 274.07 447.94 277.60 441.79
  Q 278.53 440.17 279.05 437.43
  Q 291.15 423.00 303.94 415.69
  Q 317.33 408.04 332.01 402.76
  Q 345.04 398.08 359.49 398.56
  Q 367.74 398.84 369.93 390.99
  Q 370.19 390.10 369.77 388.37
  Q 369.47 387.13 368.54 386.14
  Q 364.31 381.70 358.76 380.06
  Q 358.67 380.03 358.76 379.99
  Q 358.79 379.98 358.82 379.97
  Q 358.85 379.95 358.82 379.94
  L 355.10 378.82
  Q 354.61 378.67 352.87 378.53
  Q 341.30 377.62 329.77 378.54
  A 0.34 0.34 0.0 0 1 329.40 378.18
  Q 329.56 372.84 331.06 368.05
  Q 333.63 359.84 336.00 355.25
  Q 338.51 350.38 343.18 345.17
  Q 361.13 325.15 389.52 321.79
  Q 398.67 320.70 406.36 322.19
  Q 406.86 322.28 406.56 322.70
  Q 402.55 328.33 401.65 331.68
  C 400.96 334.23 400.27 338.79 402.99 340.41
  Z"
/>
<path fill="#ffffff" d="
  M 428.91 434.42
  Q 426.21 432.24 423.72 429.60
  Q 415.66 421.08 408.27 412.00
  Q 407.39 410.92 406.23 407.74
  Q 405.27 405.10 407.61 403.10
  Q 410.21 400.88 428.19 383.85
  C 431.90 380.34 436.08 376.01 438.79 372.80
  C 440.77 370.46 442.59 369.43 445.57 370.78
  Q 450.24 372.92 452.84 374.72
  Q 459.63 379.44 468.11 387.28
  Q 468.57 387.70 470.98 389.25
  Q 471.38 389.50 471.78 389.27
  Q 475.17 387.26 479.65 386.89
  A 1.34 1.34 0.0 0 0 480.88 385.67
  Q 481.80 374.29 484.46 361.89
  C 485.13 358.80 485.34 355.35 486.01 351.07
  Q 486.23 349.73 487.08 349.26
  Q 488.38 348.54 489.27 348.47
  Q 494.12 348.11 495.81 348.09
  Q 508.04 347.94 536.51 347.84
  Q 539.40 347.83 540.06 351.00
  Q 543.78 368.84 544.27 386.93
  Q 544.29 387.52 544.88 387.47
  Q 549.64 387.06 553.07 389.82
  A 1.98 1.98 0.0 0 0 555.66 389.72
  Q 564.12 381.75 574.43 374.68
  C 577.54 372.54 583.46 368.19 586.37 370.87
  Q 588.22 372.58 588.91 373.33
  Q 606.35 392.33 609.17 395.45
  Q 609.97 396.34 612.67 398.42
  Q 618.66 403.03 619.37 403.62
  C 620.61 404.65 621.39 405.94 620.88 407.61
  Q 620.13 410.05 618.50 412.01
  Q 611.11 420.87 606.63 426.88
  Q 602.95 431.83 598.50 435.18
  A 1.08 1.07 56.5 0 0 598.22 436.57
  L 601.99 443.10
  A 1.53 1.50 75.3 0 0 603.26 443.86
  Q 616.75 444.14 630.00 444.38
  C 633.94 444.45 638.50 443.98 640.69 448.16
  Q 641.36 449.44 641.41 451.87
  Q 641.82 470.38 641.90 487.01
  Q 641.92 491.51 642.31 495.75
  C 642.66 499.63 639.92 501.20 636.86 502.49
  Q 635.73 502.97 633.87 503.04
  Q 610.00 504.02 602.97 504.15
  A 0.58 0.57 14.1 0 0 602.49 504.43
  L 598.86 510.72
  A 1.34 1.33 40.0 0 0 599.00 512.25
  Q 609.91 525.31 620.85 539.54
  Q 621.55 540.44 621.85 541.61
  Q 621.97 542.09 621.78 542.54
  Q 620.87 544.68 619.23 545.99
  Q 602.29 559.59 588.04 576.03
  Q 585.77 578.64 582.70 577.88
  Q 580.49 577.33 576.31 574.46
  Q 566.27 567.55 557.04 560.05
  Q 556.17 559.34 553.77 556.78
  Q 553.24 556.20 552.49 556.44
  L 545.51 558.60
  A 0.84 0.81 84.1 0 0 544.93 559.34
  Q 544.46 566.34 544.23 567.47
  C 541.50 580.72 540.11 586.28 539.49 593.77
  Q 539.27 596.35 537.00 597.18
  Q 535.79 597.62 533.17 597.58
  Q 518.67 597.32 491.21 597.22
  Q 489.66 597.21 488.46 596.75
  Q 487.99 596.57 487.75 596.13
  Q 486.74 594.34 486.43 591.81
  Q 484.56 576.72 484.00 574.76
  Q 481.63 566.50 480.88 559.08
  Q 480.82 558.54 480.28 558.49
  Q 477.13 558.20 474.56 556.46
  Q 474.12 556.17 473.73 556.51
  Q 459.83 568.81 444.20 577.70
  C 443.00 578.38 441.53 577.88 440.52 576.85
  Q 436.26 572.49 432.35 568.59
  Q 430.34 566.59 423.86 560.70
  Q 414.70 552.37 407.79 544.45
  Q 404.67 540.88 407.23 537.55
  Q 412.49 530.71 416.02 525.59
  Q 418.55 521.93 421.92 518.33
  Q 426.29 513.65 428.70 511.89
  A 0.63 0.62 50.1 0 0 428.78 510.95
  Q 425.79 507.83 424.25 504.30
  Q 424.05 503.83 423.54 503.84
  Q 410.21 504.05 394.82 503.63
  Q 388.86 503.47 385.86 499.60
  Q 384.73 498.15 384.77 495.85
  Q 384.97 481.96 384.44 452.53
  Q 384.35 447.51 387.98 445.69
  Q 389.74 444.81 394.70 444.61
  Q 404.47 444.21 414.24 443.53
  C 417.48 443.30 420.79 443.53 424.32 443.51
  Q 424.82 443.51 424.96 443.03
  Q 425.21 442.16 426.17 438.26
  Q 426.73 435.96 428.86 434.84
  Q 429.21 434.67 428.91 434.42
  Z
  M 452.57 516.74
  Q 444.49 523.52 436.34 533.29
  C 434.61 535.36 431.92 537.64 430.21 539.24
  Q 429.77 539.64 430.21 540.05
  Q 437.59 546.84 444.33 555.11
  A 1.08 1.07 -42.3 0 0 445.94 555.18
  Q 457.29 543.55 469.98 533.43
  Q 470.38 533.11 470.82 533.39
  Q 484.57 542.28 499.59 543.58
  Q 500.04 543.62 500.09 544.07
  L 503.75 577.80
  A 0.47 0.46 -7.1 0 0 504.28 578.21
  Q 512.93 576.93 521.73 578.15
  Q 522.21 578.21 522.19 577.73
  C 522.06 575.12 521.94 572.77 522.35 570.32
  Q 524.54 557.40 525.93 544.64
  A 1.12 1.12 0.0 0 1 526.93 543.65
  Q 543.42 542.03 556.62 532.40
  A 0.83 0.83 0.0 0 1 557.81 532.63
  C 559.78 535.82 561.77 538.43 564.68 540.85
  C 571.14 546.24 575.54 549.85 580.78 555.62
  A 0.61 0.60 -46.2 0 0 581.70 555.60
  Q 585.38 551.04 595.53 540.21
  Q 595.76 539.96 596.10 539.85
  Q 596.48 539.73 596.74 539.62
  Q 597.49 539.32 596.89 538.78
  C 593.70 535.95 590.23 533.28 587.61 530.06
  Q 581.69 522.81 575.68 517.79
  A 1.90 1.90 0.0 0 1 575.34 515.24
  Q 582.53 505.03 585.66 492.87
  C 586.36 490.13 587.57 486.92 588.39 484.75
  A 1.08 1.07 -78.9 0 1 589.42 484.05
  L 622.24 484.78
  Q 622.43 484.78 622.43 484.59
  L 622.43 462.78
  A 0.36 0.35 89.2 0 0 622.07 462.42
  Q 608.12 462.79 595.50 462.29
  Q 594.07 462.23 588.57 462.69
  A 0.35 0.34 -4.0 0 1 588.19 462.37
  Q 587.73 455.29 584.10 447.93
  Q 580.99 441.65 575.09 430.26
  A 0.80 0.80 0.0 0 1 575.40 429.20
  Q 578.05 427.67 579.94 425.45
  Q 584.83 419.75 590.16 414.45
  C 591.68 412.93 593.24 410.91 594.37 409.53
  C 595.13 408.60 595.92 408.26 597.04 407.69
  A 0.74 0.74 0.0 0 0 597.07 406.39
  Q 587.69 401.02 581.93 391.47
  A 0.43 0.43 0.0 0 0 581.25 391.40
  Q 573.91 399.25 563.18 407.66
  C 561.73 408.79 560.20 410.72 559.24 411.82
  A 1.16 1.16 0.0 0 1 557.79 412.07
  Q 542.75 403.55 525.71 400.47
  A 0.80 0.80 0.0 0 1 525.05 399.72
  Q 524.53 386.43 522.64 372.40
  C 522.47 371.13 522.53 369.29 522.65 367.86
  Q 522.77 366.46 521.38 366.59
  Q 511.11 367.52 503.67 366.68
  Q 503.09 366.62 503.11 367.20
  Q 503.30 372.15 502.48 377.59
  C 501.36 384.99 501.49 392.62 501.61 399.97
  A 1.71 1.70 -4.6 0 1 500.14 401.69
  Q 487.47 403.45 474.63 409.16
  Q 472.48 410.12 470.05 412.02
  A 1.10 1.10 0.0 0 1 468.67 411.99
  L 445.99 392.94
  A 1.11 1.11 0.0 0 0 444.38 393.13
  Q 438.58 401.11 431.11 406.52
  A 1.33 1.32 56.7 0 0 430.75 408.28
  Q 431.71 409.89 432.65 410.87
  Q 438.23 416.69 442.79 421.93
  C 445.34 424.86 447.60 426.66 451.18 429.65
  A 1.25 1.25 0.0 0 1 451.48 431.22
  Q 446.82 439.73 442.71 448.49
  C 440.86 452.43 440.11 456.49 438.79 461.69
  A 1.63 1.63 0.0 0 1 437.21 462.92
  Q 425.17 462.91 412.47 462.85
  C 410.34 462.85 408.20 462.51 405.88 462.20
  A 0.55 0.54 4.2 0 0 405.26 462.73
  L 404.78 484.35
  Q 404.77 484.75 405.17 484.73
  Q 415.76 484.29 430.67 484.27
  C 433.05 484.27 434.94 483.98 437.95 483.64
  A 0.30 0.29 80.9 0 1 438.26 483.87
  Q 441.17 496.37 448.01 509.11
  Q 450.45 513.67 452.61 516.06
  Q 452.95 516.43 452.57 516.74
  Z"
/>
<path fill="#161b1f" d="
  M 452.61 516.06
  Q 450.45 513.67 448.01 509.11
  Q 441.17 496.37 438.26 483.87
  A 0.30 0.29 80.9 0 0 437.95 483.64
  C 434.94 483.98 433.05 484.27 430.67 484.27
  Q 415.76 484.29 405.17 484.73
  Q 404.77 484.75 404.78 484.35
  L 405.26 462.73
  A 0.55 0.54 4.2 0 1 405.88 462.20
  C 408.20 462.51 410.34 462.85 412.47 462.85
  Q 425.17 462.91 437.21 462.92
  A 1.63 1.63 0.0 0 0 438.79 461.69
  C 440.11 456.49 440.86 452.43 442.71 448.49
  Q 446.82 439.73 451.48 431.22
  A 1.25 1.25 0.0 0 0 451.18 429.65
  C 447.60 426.66 445.34 424.86 442.79 421.93
  Q 438.23 416.69 432.65 410.87
  Q 431.71 409.89 430.75 408.28
  A 1.33 1.32 56.7 0 1 431.11 406.52
  Q 438.58 401.11 444.38 393.13
  A 1.11 1.11 0.0 0 1 445.99 392.94
  L 468.67 411.99
  A 1.10 1.10 0.0 0 0 470.05 412.02
  Q 472.48 410.12 474.63 409.16
  Q 487.47 403.45 500.14 401.69
  A 1.71 1.70 -4.6 0 0 501.61 399.97
  C 501.49 392.62 501.36 384.99 502.48 377.59
  Q 503.30 372.15 503.11 367.20
  Q 503.09 366.62 503.67 366.68
  Q 511.11 367.52 521.38 366.59
  Q 522.77 366.46 522.65 367.86
  C 522.53 369.29 522.47 371.13 522.64 372.40
  Q 524.53 386.43 525.05 399.72
  A 0.80 0.80 0.0 0 0 525.71 400.47
  Q 542.75 403.55 557.79 412.07
  A 1.16 1.16 0.0 0 0 559.24 411.82
  C 560.20 410.72 561.73 408.79 563.18 407.66
  Q 573.91 399.25 581.25 391.40
  A 0.43 0.43 0.0 0 1 581.93 391.47
  Q 587.69 401.02 597.07 406.39
  A 0.74 0.74 0.0 0 1 597.04 407.69
  C 595.92 408.26 595.13 408.60 594.37 409.53
  C 593.24 410.91 591.68 412.93 590.16 414.45
  Q 584.83 419.75 579.94 425.45
  Q 578.05 427.67 575.40 429.20
  A 0.80 0.80 0.0 0 0 575.09 430.26
  Q 580.99 441.65 584.10 447.93
  Q 587.73 455.29 588.19 462.37
  A 0.35 0.34 -4.0 0 0 588.57 462.69
  Q 594.07 462.23 595.50 462.29
  Q 608.12 462.79 622.07 462.42
  A 0.36 0.35 89.2 0 1 622.43 462.78
  L 622.43 484.59
  Q 622.43 484.78 622.24 484.78
  L 589.42 484.05
  A 1.08 1.07 -78.9 0 0 588.39 484.75
  C 587.57 486.92 586.36 490.13 585.66 492.87
  Q 582.53 505.03 575.34 515.24
  A 1.90 1.90 0.0 0 0 575.68 517.79
  Q 581.69 522.81 587.61 530.06
  C 590.23 533.28 593.70 535.95 596.89 538.78
  Q 597.49 539.32 596.74 539.62
  Q 596.48 539.73 596.10 539.85
  Q 595.76 539.96 595.53 540.21
  Q 585.38 551.04 581.70 555.60
  A 0.61 0.60 -46.2 0 1 580.78 555.62
  C 575.54 549.85 571.14 546.24 564.68 540.85
  C 561.77 538.43 559.78 535.82 557.81 532.63
  A 0.83 0.83 0.0 0 0 556.62 532.40
  Q 543.42 542.03 526.93 543.65
  A 1.12 1.12 0.0 0 0 525.93 544.64
  Q 524.54 557.40 522.35 570.32
  C 521.94 572.77 522.06 575.12 522.19 577.73
  Q 522.21 578.21 521.73 578.15
  Q 512.93 576.93 504.28 578.21
  A 0.47 0.46 -7.1 0 1 503.75 577.80
  L 500.09 544.07
  Q 500.04 543.62 499.59 543.58
  Q 484.57 542.28 470.82 533.39
  Q 470.38 533.11 469.98 533.43
  Q 457.29 543.55 445.94 555.18
  A 1.08 1.07 -42.3 0 1 444.33 555.11
  Q 437.59 546.84 430.21 540.05
  Q 429.77 539.64 430.21 539.24
  C 431.92 537.64 434.61 535.36 436.34 533.29
  Q 444.49 523.52 452.57 516.74
  Q 452.95 516.43 452.61 516.06
  Z
  M 466.35 494.51
  C 470.43 502.76 475.56 509.27 483.10 514.19
  Q 494.34 521.52 507.34 523.88
  Q 516.56 525.55 523.23 523.99
  C 531.55 522.05 539.01 519.31 546.01 513.53
  Q 561.29 500.91 565.11 482.71
  C 567.03 473.60 566.43 463.79 563.02 455.26
  Q 558.16 443.09 548.46 434.36
  C 546.30 432.42 543.00 430.38 540.76 428.91
  Q 537.17 426.55 534.59 425.49
  Q 521.40 420.03 507.48 421.25
  C 501.96 421.73 495.88 423.94 490.90 426.16
  Q 480.78 430.69 473.44 439.19
  Q 471.62 441.29 466.92 449.49
  Q 464.10 454.39 463.01 460.32
  Q 461.46 468.69 461.37 471.78
  Q 461.03 483.78 466.35 494.51
  Z"
/>
<path fill="#161b1f" d="
  M 283.53 397.76
  L 285.04 398.49
  Q 271.51 407.98 261.47 419.47
  Q 258.99 422.32 251.61 431.68
  Q 248.70 435.38 245.94 440.68
  Q 243.71 444.96 240.71 449.99
  Q 239.85 451.42 238.08 457.10
  Q 236.85 461.00 235.58 464.22
  Q 232.64 471.63 232.51 472.27
  Q 228.09 494.48 228.99 517.00
  L 228.71 527.04
  Q 228.71 527.08 228.68 527.08
  Q 228.44 527.05 228.43 527.05
  Q 228.30 526.98 228.29 526.90
  Q 226.70 517.43 226.83 505.56
  Q 226.99 491.38 228.32 477.38
  C 228.44 476.12 228.83 473.93 229.31 472.77
  Q 233.38 462.97 236.57 452.31
  C 236.89 451.25 237.75 449.28 238.39 448.29
  Q 242.09 442.49 244.27 438.08
  Q 246.24 434.08 248.39 431.62
  Q 249.55 430.29 251.29 427.37
  Q 252.01 426.15 254.58 423.46
  Q 266.04 411.45 278.49 401.25
  Q 279.88 400.12 283.53 397.76
  Z"
/>
<path fill="#1c1e24" d="
  M 761.46 455.42
  Q 765.73 462.34 768.11 469.35
  Q 767.79 474.71 769.06 480.11
  Q 770.97 488.29 770.98 488.36
  Q 774.11 507.57 771.64 524.79
  Q 770.72 531.20 768.75 536.02
  Q 767.42 539.28 761.75 553.53
  Q 760.00 557.93 757.88 561.10
  Q 755.90 564.06 748.89 573.77
  Q 743.52 581.22 738.83 585.55
  Q 732.06 591.80 726.69 595.59
  C 722.38 598.64 717.02 601.00 711.73 603.78
  Q 707.03 606.25 704.89 609.09
  Q 683.90 617.68 661.75 617.78
  Q 638.11 617.90 563.05 617.70
  Q 568.46 617.10 570.92 617.11
  Q 589.07 617.19 607.22 617.07
  Q 613.30 617.03 618.65 616.47
  C 621.12 616.21 622.87 615.38 624.83 613.62
  Q 631.16 607.95 634.62 600.87
  Q 640.62 588.61 641.69 586.46
  Q 646.72 576.37 656.00 571.18
  Q 663.15 567.19 667.28 564.81
  Q 672.07 562.06 672.02 556.03
  Q 671.91 544.37 671.90 541.23
  Q 671.85 524.82 676.86 508.40
  Q 677.99 504.69 682.63 490.80
  Q 688.32 473.79 681.09 456.86
  Q 679.55 453.25 674.82 442.15
  Q 672.82 437.45 672.67 432.28
  C 672.46 424.80 679.34 422.83 685.34 423.50
  Q 691.40 424.18 700.58 426.22
  Q 706.31 427.50 709.67 426.79
  Q 712.63 426.16 715.81 424.98
  Q 716.44 424.74 717.38 424.72
  Q 718.38 424.71 718.95 424.69
  Q 724.81 424.48 731.52 428.51
  Q 737.67 432.22 743.05 437.00
  Q 749.36 442.62 761.46 455.42
  Z"
/>
<path fill="#ffffff" d="
  M 466.35 494.51
  Q 461.03 483.78 461.37 471.78
  Q 461.46 468.69 463.01 460.32
  Q 464.10 454.39 466.92 449.49
  Q 471.62 441.29 473.44 439.19
  Q 480.78 430.69 490.90 426.16
  C 495.88 423.94 501.96 421.73 507.48 421.25
  Q 521.40 420.03 534.59 425.49
  Q 537.17 426.55 540.76 428.91
  C 543.00 430.38 546.30 432.42 548.46 434.36
  Q 558.16 443.09 563.02 455.26
  C 566.43 463.79 567.03 473.60 565.11 482.71
  Q 561.29 500.91 546.01 513.53
  C 539.01 519.31 531.55 522.05 523.23 523.99
  Q 516.56 525.55 507.34 523.88
  Q 494.34 521.52 483.10 514.19
  C 475.56 509.27 470.43 502.76 466.35 494.51
  Z
  M 546.23 472.69
  A 32.54 32.54 0.0 0 0 513.69 440.15
  A 32.54 32.54 0.0 0 0 481.15 472.69
  A 32.54 32.54 0.0 0 0 513.69 505.23
  A 32.54 32.54 0.0 0 0 546.23 472.69
  Z"
/>
<path fill="#161b1f" d="
  M 279.05 437.43
  Q 278.53 440.17 277.60 441.79
  Q 274.07 447.94 269.99 453.74
  Q 268.31 456.12 266.99 458.71
  Q 266.11 460.44 264.97 464.13
  Q 262.05 473.53 256.64 481.46
  Q 262.66 456.78 279.05 437.43
  Z"
/>
<circle fill="#161b1f" cx="513.69" cy="472.69" r="32.54"/>
<path fill="#161b1f" d="
  M 797.19 534.73
  Q 806.50 491.58 787.37 452.20
  Q 789.43 450.38 791.45 453.95
  Q 794.55 459.44 795.77 463.84
  Q 798.64 474.22 801.26 484.39
  Q 802.80 490.34 802.86 495.89
  Q 802.99 506.48 802.82 517.36
  Q 802.72 523.29 801.40 529.05
  Q 799.74 536.34 797.19 534.73
  Z"
/>
<path fill="#161b1f" d="
  M 768.11 469.35
  Q 778.84 498.47 773.48 528.67
  Q 772.94 531.69 770.32 538.80
  Q 768.23 544.47 767.25 547.88
  Q 765.98 552.33 763.43 556.65
  Q 754.25 572.23 744.19 582.94
  Q 737.32 590.25 727.73 597.24
  Q 718.29 604.13 704.89 609.09
  Q 707.03 606.25 711.73 603.78
  C 717.02 601.00 722.38 598.64 726.69 595.59
  Q 732.06 591.80 738.83 585.55
  Q 743.52 581.22 748.89 573.77
  Q 755.90 564.06 757.88 561.10
  Q 760.00 557.93 761.75 553.53
  Q 767.42 539.28 768.75 536.02
  Q 770.72 531.20 771.64 524.79
  Q 774.11 507.57 770.98 488.36
  Q 770.97 488.29 769.06 480.11
  Q 767.79 474.71 768.11 469.35
  Z"
/>
<path fill="#161b1f" d="
  M 234.31 546.40
  Q 236.54 554.35 240.78 563.24
  Q 251.36 585.39 269.67 602.59
  Q 281.47 613.68 295.12 622.26
  Q 303.32 627.42 312.76 631.30
  Q 332.84 639.56 354.06 641.94
  Q 361.00 642.73 374.00 642.70
  Q 384.11 642.68 394.21 642.65
  Q 408.37 643.00 422.53 642.72
  Q 422.79 642.71 422.94 642.96
  Q 423.18 643.34 422.75 643.46
  Q 421.02 643.95 418.86 644.04
  Q 412.04 644.31 368.88 645.64
  Q 360.91 645.88 349.59 644.13
  C 335.36 641.92 325.34 640.48 312.96 636.82
  Q 305.02 634.47 296.04 632.20
  Q 292.59 631.32 287.56 628.06
  Q 281.43 624.08 271.68 616.73
  Q 264.94 611.66 259.94 605.00
  C 256.21 600.04 253.48 593.32 249.88 587.92
  Q 241.74 575.75 236.40 562.14
  C 234.35 556.92 232.80 551.76 234.31 546.40
  Z"
/>
<path fill="#161b1f" d="
  M 735.23 624.24
  Q 730.51 627.86 725.30 630.61
  C 721.19 632.78 716.46 633.38 711.99 635.39
  Q 705.30 638.40 700.70 639.21
  Q 693.52 640.47 681.52 642.58
  Q 671.33 644.36 662.18 644.43
  Q 649.85 644.53 637.79 642.63
  Q 646.07 642.25 654.10 642.24
  Q 666.66 642.24 670.38 641.97
  Q 700.12 639.83 726.80 626.17
  Q 732.81 623.10 738.36 619.23
  C 748.02 612.50 756.94 605.80 764.11 597.87
  Q 769.01 592.45 775.98 583.28
  Q 781.04 578.06 784.61 571.48
  Q 785.40 570.03 785.11 571.69
  Q 784.95 572.60 784.36 574.12
  Q 783.83 575.47 778.49 585.95
  Q 777.28 588.32 772.88 594.22
  C 770.23 597.76 767.00 599.67 763.49 602.97
  Q 754.63 611.31 747.18 616.19
  Q 738.22 622.07 735.23 624.24
  Z"
/>
<path fill="#1c1e24" d="
  M 601.46 642.21
  L 604.36 643.85
  A 0.90 0.89 35.2 0 1 604.60 645.21
  C 602.97 647.15 596.89 647.63 594.88 647.75
  Q 588.68 648.14 570.07 649.52
  C 557.47 650.46 546.54 650.52 535.80 649.23
  Q 524.63 647.90 513.93 642.20
  L 601.46 642.21
  Z"
/>
<path fill="#161b1f" d="
  M 2.21 794.53
  L 2.29 853.95
  Q 2.23 854.44 2.18 854.48
  A 0.33 0.33 0.0 0 1 1.64 854.22
  L 1.41 723.64
  A 0.23 0.22 90.0 0 1 1.63 723.41
  L 2.01 723.41
  Q 2.06 723.41 2.06 723.46
  L 2.21 794.53
  Z"
/>
<path fill="#161b1f" d="
  M 2.22 866.78
  Q 2.04 913.76 2.10 918.72
  Q 2.40 942.86 2.37 963.08
  L 2.30 1000.79
  L 1.77 1003.69
  Q 1.76 1003.75 1.71 1003.75
  Q 1.54 1003.75 1.44 1003.75
  Q 1.36 1003.75 1.36 1003.67
  L 1.61 865.93
  Q 1.61 865.33 1.83 865.86
  L 2.22 866.78
  Z"
/>
</svg>
